<?xml version="1.0" encoding="UTF-8"?>
<svg xmlns="http://www.w3.org/2000/svg" xmlns:xlink="http://www.w3.org/1999/xlink" width="1280pt" height="639pt" viewBox="0 0 1280 639" version="1.1">
<g id="surface1">
<rect x="0" y="0" width="1280" height="639" style="fill:rgb(14.898682%,19.999695%,46.299744%);fill-opacity:1;stroke:none;"/>
<path style=" stroke:none;fill-rule:nonzero;fill:rgb(100%,100%,100%);fill-opacity:1;" d="M 1280 639 L 1117.480469 639 L 606.84375 383.796875 L 639.667969 317.800781 L 661.550781 273.824219 L 672.285156 251.835938 L 1280 555.125 L 1280 639 "/>
<path style=" stroke:none;fill-rule:nonzero;fill:rgb(81.599426%,12.5%,17.599487%);fill-opacity:1;" d="M 1280 582.523438 L 1280 637.320313 L 639.460938 317.59375 L 661.238281 273.722656 L 1280 582.523438 "/>
<path style=" stroke:none;fill-rule:nonzero;fill:rgb(100%,100%,100%);fill-opacity:1;" d="M 672.492188 251.785156 L 639.894531 317.136719 L 639.667969 317.59375 L 639.285156 318.363281 L 617.785156 361.449219 L 607.246094 382.578125 L 606.84375 383.382813 L 605.234375 382.578125 L 557.910156 358.960938 L 475.558594 317.871094 L 342.089844 251.277344 L 264.566406 212.761719 L 0 80.921875 L 0 0 L 166.234375 0 L 594.289063 213.171875 L 671.480469 251.484375 L 672.492188 251.785156 "/>
<path style=" stroke:none;fill-rule:nonzero;fill:rgb(81.599426%,12.5%,17.599487%);fill-opacity:1;" d="M 639.667969 317.59375 L 639.285156 318.363281 L 617.785156 361.449219 L 585.363281 345.269531 L 503.011719 304.183594 L 396.988281 251.277344 L 319.484375 212.761719 L 0 53.519531 L 0 0 L 1.546875 0 L 429.589844 213.171875 L 506.773438 251.484375 L 557.894531 276.886719 L 639.667969 317.59375 "/>
<path style=" stroke:none;fill-rule:nonzero;fill:rgb(100%,100%,100%);fill-opacity:1;" d="M 673.089844 384.074219 L 163.03125 639 L 0 639 L 0 554.828125 L 607.085938 252.082031 L 640.097656 317.871094 L 662.0625 361.949219 L 673.089844 384.074219 "/>
<path style=" stroke:none;fill-rule:nonzero;fill:rgb(81.599426%,12.5%,17.599487%);fill-opacity:1;" d="M 662.148438 362.15625 L 108.128906 639 L 0 639 L 0 637.019531 L 639.929688 318.078125 L 662.148438 362.15625 "/>
<path style=" stroke:none;fill-rule:nonzero;fill:rgb(100%,100%,100%);fill-opacity:1;" d="M 1280 0 L 1280 80.621094 L 672.882813 383.664063 L 640.160156 317.871094 L 618.3125 274.019531 L 607.394531 252.492188 L 1114.28125 0 L 1280 0 "/>
<path style=" stroke:none;fill-rule:nonzero;fill:rgb(81.599426%,12.5%,17.599487%);fill-opacity:1;" d="M 1278.960938 0 L 640.265625 318.28125 L 618.363281 274.632813 L 1169.179688 0 L 1278.960938 0 "/>
<path style=" stroke:none;fill-rule:nonzero;fill:rgb(100%,100%,100%);fill-opacity:1;" d="M 744 0 L 744 639 L 534 639 L 534 0 L 744 0 "/>
<path style=" stroke:none;fill-rule:nonzero;fill:rgb(100%,100%,100%);fill-opacity:1;" d="M 1280 213 L 1280 424 L 0 424 L 0 213 L 1280 213 "/>
<path style=" stroke:none;fill-rule:nonzero;fill:rgb(81.599426%,12.5%,17.599487%);fill-opacity:1;" d="M 703 0 L 703 639 L 572 639 L 572 0 L 703 0 "/>
<path style=" stroke:none;fill-rule:nonzero;fill:rgb(81.599426%,12.5%,17.599487%);fill-opacity:1;" d="M 1280 251 L 1280 383 L 0 383 L 0 251 L 1280 251 "/>
</g>
</svg>
